#!OML:ASF H:\Terrain\Patient Classification 1\Takeo\Monday\TakeoMonday.ASF
:FULLY-SPECIFIED
:DEGREES
65
root 6.15811 17.6026 -0.447308 -4.58644 33.2173 -2.2527
lowerback 5.43232 -5.80881 6.08658
upperback 2.93926 -7.44403 -1.53236
thorax -0.954381 -3.67114 -4.4501
lowerneck -13.3708 -4.84764 -3.81216
upperneck -0.324144 -6.06028 5.66142
head 2.56849 -2.81852 2.13818
rclavicle -9.58142e-014 1.19271e-015
rhumerus -21.8524 35.2445 -108.193
rradius 68.0017
rwrist -9.56636
rhand -50.173 54.8184
rfingers 7.12502
rthumb -22.7552 26.1403
lclavicle -9.58142e-014 1.19271e-015
lhumerus -9.17988 -38.2672 102.844
lradius 77.6403
lwrist 27.1496
lhand -41.4902 13.3699
lfingers 7.12502
lthumb -14.404 42.8501
rfemur -11.3023 9.89136 13.2083
rtibia 25.0605
rfoot -12.8401 3.6076
rtoes -12.149
lfemur -6.23097 -13.0002 -21.3827
ltibia 29.4158
lfoot -15.5043 10.7122
ltoes -7.56702
66
root 6.10838 17.5911 -0.430627 -4.34725 34.0464 -2.13964
lowerback 5.486 -5.78546 5.94648
upperback 2.87535 -7.41543 -1.58423
thorax -1.03692 -3.6615 -4.41999
lowerneck -12.9989 -4.82118 -3.84009
upperneck -0.908856 -6.01243 5.84095
head 2.30816 -2.7986 2.21418
rclavicle 1.9307e-014 -8.34896e-015
rhumerus -21.9666 35.0266 -108.28
rradius 67.9008
rwrist -9.02531
rhand -50.3394 55.0996
rfingers 7.12502
rthumb -22.9149 26.4413
lclavicle 1.9307e-014 -8.34896e-015
lhumerus -9.2291 -38.5094 102.822
lradius 77.6769
lwrist 27.0811
lhand -41.4684 13.0964
lfingers 7.12502
lthumb -14.3829 42.5781
rfemur -11.5875 9.74029 13.1038
rtibia 24.8744
rfoot -11.8717 3.71784
rtoes -12.4356
lfemur -6.64716 -13.2261 -21.2683
ltibia 29.4288
lfoot -14.9875 10.4733
ltoes -9.19968
67
root 6.06393 17.5991 -0.403633 -4.2765 34.8362 -2.2382
lowerback 5.4019 -5.79003 5.99054
upperback 2.8425 -7.42448 -1.60112
thorax -1.03316 -3.6666 -4.46717
lowerneck -12.7274 -4.8198 -3.50175
upperneck -1.27444 -6.03963 5.54366
head 2.10856 -2.82809 2.05735
rclavicle 1.16041e-014 4.77083e-015
rhumerus -22.1703 34.7998 -108.41
rradius 67.9709
rwrist -8.96453
rhand -50.0059 55.6852
rfingers 7.12502
rthumb -22.5948 26.9875
lclavicle 1.16041e-014 4.77083e-015
lhumerus -9.55693 -38.4918 103.077
lradius 77.8125
lwrist 26.9297
lhand -41.548 13.25
lfingers 7.12502
lthumb -14.4597 42.7262
rfemur -11.772 9.6592 13.2291
rtibia 24.7409
rfoot -11.0347 3.63074
rtoes -13.0807
lfemur -6.95338 -13.588 -20.9865
ltibia 29.4702
lfoot -14.6066 10.2212
ltoes -9.99968
68
root 6.02594 17.6104 -0.369026 -4.56826 35.7033 -2.6604
lowerback 5.3303 -5.84191 6.39922
upperback 2.90069 -7.47896 -1.55257
thorax -0.98295 -3.68827 -4.64619
lowerneck -12.6784 -4.79389 -3.38588
upperneck -1.37587 -6.01185 5.37453
head 2.05173 -2.82048 1.98346
rclavicle -4.23411e-014 3.97569e-016
rhumerus -22.3582 34.6235 -108.501
rradius 68.0983
rwrist -8.90973
rhand -49.9953 55.6112
rfingers 7.12502
rthumb -22.5846 26.9123
lclavicle -4.23411e-014 3.97569e-016
lhumerus -9.67654 -38.6337 103.207
lradius 77.7804
lwrist 26.8445
lhand -41.497 13.881
lfingers 7.12502
lthumb -14.4105 43.3608
rfemur -11.6705 9.35215 13.7243
rtibia 24.72
rfoot -10.0916 3.68881
rtoes -10.1053
lfemur -7.012 -14.0872 -20.468
ltibia 29.4115
lfoot -14.3696 10.0116
ltoes -10.8194
69
root 5.98606 17.613 -0.334412 -4.91028 36.6201 -2.73729
lowerback 5.55757 -5.89719 6.48213
upperback 2.99041 -7.53293 -1.56171
thorax -1.03372 -3.71294 -4.67725
lowerneck -12.6071 -4.79352 -3.76534
upperneck -1.49775 -5.96303 5.67779
head 2.02512 -2.78809 2.15735
rclavicle -4.4329e-014 -1.47101e-014
rhumerus -22.5291 34.6284 -108.55
rradius 68.2049
rwrist -8.04444
rhand -51.38 55.3031
rfingers 7.12502
rthumb -23.9131 26.772
lclavicle -4.4329e-014 -1.47101e-014
lhumerus -9.64829 -38.9893 103.165
lradius 77.6864
lwrist 26.9375
lhand -41.4875 13.9578
lfingers 7.12502
lthumb -14.4014 43.4382
rfemur -11.1996 8.95775 13.9813
rtibia 24.6811
rfoot -9.06434 3.70301
rtoes -6.33365
lfemur -6.75938 -14.5165 -20.3138
ltibia 29.3076
lfoot -14.4571 9.71499
ltoes -11.2671
